<svg width="36" height="30" viewBox="0 0 36 30" fill="none" xmlns="http://www.w3.org/2000/svg">
<g clip-path="url(#clip0_265_3536)">
<path d="M33 15C33 6.71578 26.2842 0 18 0C9.71578 0 3 6.71578 3 15C3 22.4869 8.48531 28.6925 15.6562 29.8178V19.3359H11.8477V15H15.6562V11.6953C15.6562 7.93594 17.8957 5.85938 21.322 5.85938C22.9631 5.85938 24.6797 6.15234 24.6797 6.15234V9.84375H22.7883C20.9249 9.84375 20.3438 11 20.3438 12.1863V15H24.5039L23.8389 19.3359H20.3438V29.8178C27.5147 28.6925 33 22.487 33 15Z" fill="#0866FF"/>
<path d="M23.8389 19.3359L24.5039 15H20.3438V12.1863C20.3438 10.9999 20.9249 9.84375 22.7883 9.84375H24.6797V6.15234C24.6797 6.15234 22.9631 5.85938 21.3219 5.85938C17.8957 5.85938 15.6562 7.93594 15.6562 11.6953V15H11.8477V19.3359H15.6562V29.8178C16.4316 29.9393 17.2152 30.0002 18 30C18.7848 30.0002 19.5684 29.9393 20.3438 29.8178V19.3359H23.8389Z" fill="white"/>
</g>
<defs>
<clipPath id="clip0_265_3536">
<rect width="30" height="30" fill="white" transform="translate(3)"/>
</clipPath>
</defs>
</svg>
