<svg width="30" height="30" viewBox="0 0 30 30" fill="none" xmlns="http://www.w3.org/2000/svg">
<g clip-path="url(#clip0_265_3540)">
<g clip-path="url(#clip1_265_3540)">
<path d="M15.19 8.62C14.005 8.62 12.1713 7.2725 10.24 7.32C7.69002 7.35375 5.35252 8.79875 4.03877 11.0875C1.39252 15.6812 3.35627 22.4662 5.93752 26.2C7.20377 28.0175 8.69752 30.0625 10.6775 29.9987C12.5775 29.9175 13.29 28.765 15.5963 28.765C17.885 28.765 18.5338 29.9987 20.5463 29.95C22.5925 29.9175 23.8913 28.1 25.1413 26.265C26.5863 24.155 27.1863 22.1087 27.2188 21.9962C27.17 21.98 23.2413 20.47 23.1938 15.925C23.1613 12.125 26.2938 10.3075 26.44 10.2262C24.6538 7.61375 21.9113 7.32125 20.9525 7.25625C18.4525 7.06125 16.3588 8.62 15.19 8.62ZM19.4125 4.7875C20.4663 3.5225 21.1625 1.75375 20.9688 0C19.46 0.065 17.6413 1.00625 16.5538 2.2725C15.5788 3.3925 14.7363 5.195 14.9625 6.915C16.635 7.045 18.3563 6.055 19.4113 4.78875" fill="#040404"/>
</g>
</g>
<defs>
<clipPath id="clip0_265_3540">
<rect width="30" height="30" rx="15" fill="white"/>
</clipPath>
<clipPath id="clip1_265_3540">
<rect width="30" height="30" fill="white"/>
</clipPath>
</defs>
</svg>
