<svg width="80" height="80" viewBox="0 0 80 80" fill="none" xmlns="http://www.w3.org/2000/svg">
<g clip-path="url(#clip0_248_2568)">
<rect width="80" height="80" rx="40" fill="white"/>
<g clip-path="url(#clip1_248_2568)">
<path fill-rule="evenodd" clip-rule="evenodd" d="M46.8878 36.7627L46.9069 36.6512L63.838 29.9778L48.2881 38.9006C50.8688 41.3874 53.8909 42.6953 57.3144 42.9215C64.3765 43.3867 70.8874 40.2451 75.2444 34.7809C76.0696 33.747 76.7865 32.5936 77.4174 31.3861C78.182 29.9236 80.9205 24.9979 80.527 23.8238C79.9471 22.1048 71.8846 20.9196 70.043 20.6679C60.4623 19.3552 48.7485 20.9451 46.1486 32.2129C46.0227 32.7625 45.9956 33.3248 46.0402 33.8904L45.5002 34.2377L44.9888 33.8649C45.0844 33.4714 45.1354 33.0731 45.1258 32.6701C44.8885 22.9555 35.5132 19.669 27.4045 19.1322C25.8433 19.0302 19.0074 18.6415 18.2412 19.959C17.7171 20.8591 19.1413 25.377 19.522 26.7104C19.8374 27.8096 20.2325 28.8818 20.7375 29.8727C23.4011 35.1059 28.2345 38.7954 34.1257 39.6015C36.982 39.9934 39.6903 39.4263 42.2376 37.8157L30.9395 27.8447L43.1377 35.7973L43.1361 35.8833C44.0569 39.0981 43.9549 42.5073 43.1488 46.3466C44.6511 45.6664 46.4975 45.6552 47.2143 46.5346L47.3131 46.5091C46.4927 43.2879 45.8698 39.8644 46.8878 36.7627Z" fill="#338032"/>
<path fill-rule="evenodd" clip-rule="evenodd" d="M62.5429 54.543C60.4098 50.7196 55.2482 49.5343 51.6272 51.462C53.2999 46.8245 49.7489 45.8416 47.2144 46.5346C45.9447 44.9718 41.1049 46.2192 40.9648 49.0357C36.2397 45.8464 31.6278 47.4458 30.2163 51.078C31.1753 51.4572 32.1296 51.8905 33.0775 52.3668C35.0815 53.3721 37.0203 54.5414 38.9288 55.7824L45.9702 55.9528C47.6971 56.0866 49.2137 56.7525 50.3384 57.7227C51.906 57.8948 53.4417 58.0286 54.9105 58.1082L62.5429 54.543Z" fill="#432A16"/>
<path fill-rule="evenodd" clip-rule="evenodd" d="M-1 50.2417H12.4296L11.8099 77.0069H-1V50.2417ZM14.8686 74.8451L15.3863 52.6297L25.3781 52.8623C29.5965 53.721 33.7799 56.1153 37.9538 58.8809L45.7152 59.0625C49.2231 59.3557 50.9803 62.9592 47.5122 65.2197C44.7434 67.1506 41.1558 66.9546 37.4838 66.5388C34.9492 66.3556 34.7596 69.7632 37.4073 69.8365C38.3249 69.9289 39.3302 69.7377 40.2032 69.7568C44.796 69.8604 48.6002 69.0702 51.001 65.4953L52.2277 62.8062L63.9064 57.35C69.7275 55.5833 73.6911 61.7214 69.3372 65.8251C60.835 71.7147 52.1416 76.521 43.2778 80.3603C36.8163 84.0865 30.4504 83.8061 24.1657 79.9142L14.8686 74.8451Z" fill="#2E2D2D"/>
</g>
</g>
<defs>
<clipPath id="clip0_248_2568">
<rect width="80" height="80" rx="40" fill="white"/>
</clipPath>
<clipPath id="clip1_248_2568">
<rect width="81.5652" height="64" fill="white" transform="translate(-1 19)"/>
</clipPath>
</defs>
</svg>
