<svg width="80" height="80" viewBox="0 0 80 80" fill="none" xmlns="http://www.w3.org/2000/svg">
<rect width="80" height="80" rx="40" fill="white"/>
<path d="M39.9864 77.0002H51.2968C51.4538 71.8012 52.2161 68.9427 53.5836 68.4248C67.8475 63.0118 77.9727 49.3348 77.9727 33.3159H2C2 48.9872 11.6922 62.4192 25.4699 68.062C26.9096 68.6521 27.9852 71.6315 28.6968 77.0002H39.9864Z" stroke="#1E1C1F" stroke-width="2" stroke-linejoin="round"/>
<path d="M21.8347 46.6546C22.5185 48.9085 23.4219 50.7711 24.545 52.2424C25.7162 53.7492 27.0831 55.0931 28.6096 56.2386M42.2923 33.3651C46.5047 24.6961 50.6971 16.0175 54.8696 7.32922C56.8638 3.13173 60.9094 2.12129 64.6415 3.71672C68.3737 5.31215 69.8837 9.87431 68.3167 13.0557C67.3481 15.0208 64.0623 21.7767 58.4593 33.3233" stroke="#1E1C1F" stroke-width="2" stroke-linecap="round"/>
</svg>
