<svg width="80" height="80" viewBox="0 0 80 80" fill="none" xmlns="http://www.w3.org/2000/svg">
<rect width="80" height="80" rx="40" fill="white"/>
<path fill-rule="evenodd" clip-rule="evenodd" d="M51.4669 33.1316L51.1634 32.8281L52.899 31.0926C54.5408 29.4496 54.5408 26.7624 52.899 25.1195L51.188 23.4085C49.545 21.7655 46.8579 21.7655 45.2149 23.4085L43.4794 25.1441L43.1747 24.8394C42.7516 24.4175 42.0661 24.4175 41.6442 24.8406L41.0313 25.4523C40.6082 25.8765 40.6082 26.5621 41.0313 26.9851L42.0415 27.9953L29.0804 40.9563C28.3058 43.8907 27.782 45.7892 27.7351 46.947L27.2183 49.1818C27.0542 49.8966 26.4343 50.8646 25.8636 51.7576C25.0972 52.9588 24.394 54.058 24.394 55.1045C24.394 56.9361 25.3491 58.1795 26.6288 58.8229C27.1855 59.1018 27.7995 59.2577 28.4136 59.2893C29.0242 59.3209 29.6464 59.2319 30.223 59.0233C31.5859 58.5276 32.6945 57.3955 32.889 55.6283L32.8949 55.5533C32.984 54.0767 32.1847 52.858 31.3398 51.5724L31.3445 51.5701C30.8183 50.7685 30.2675 49.9294 30.0917 49.1759L29.9218 48.4505C31.1394 48.3029 32.9254 47.8575 35.4367 47.3126L48.3978 34.3516L49.3224 35.2762C49.7454 35.6992 50.4322 35.6992 50.854 35.2762L51.4669 34.6633C51.5675 34.5627 51.6473 34.4433 51.7018 34.3119C51.7562 34.1805 51.7842 34.0397 51.7842 33.8975C51.7842 33.7552 51.7562 33.6144 51.7018 33.483C51.6473 33.3516 51.5675 33.2322 51.4669 33.1316ZM39.7293 40.9387L35.4262 36.6344L41.6946 30.366L45.9989 34.6703L39.7293 40.9387ZM28.655 49.5099C29.1718 51.7236 31.5355 53.6291 31.4242 55.4666C31.0632 58.7256 25.8706 58.6049 25.8706 55.1045C25.8706 53.8564 28.2109 51.4318 28.655 49.5099Z" fill="#1E1C1F"/>
<path d="M41.5024 10.0384C37.4512 9.8345 33.5417 10.4486 29.9347 11.7353C22.4316 14.4134 16.2987 19.9608 12.8837 27.1585C11.2431 30.6191 10.2411 34.4476 10.0384 38.4976C9.8345 42.5489 10.4486 46.4583 11.7353 50.0653C13.0736 53.8154 15.1326 57.2279 17.7518 60.1248C20.3709 63.0193 23.5596 65.41 27.1573 67.1163C30.6191 68.7569 34.4476 69.7589 38.4976 69.9616C42.5489 70.1655 46.4583 69.5514 50.0653 68.2647C57.5684 65.5866 63.7013 60.0392 67.1163 52.8415C68.7569 49.3809 69.7589 45.5524 69.9616 41.5024C70.1655 37.4512 69.5514 33.5417 68.2647 29.9347C66.9388 26.2192 64.8944 22.8011 62.2482 19.8752C59.6016 16.9503 56.4053 14.5747 52.8415 12.8837C49.3809 11.2431 45.5524 10.2411 41.5024 10.0384ZM21.0717 25.1124L52.92 60.3217C51.0224 61.532 48.9639 62.4693 46.8051 63.1061C44.2821 63.849 41.5856 64.1865 38.7941 64.0471C35.5304 63.883 32.4554 63.0803 29.6851 61.7678C26.8116 60.4049 24.2545 58.4841 22.144 56.1509C20.0322 53.8177 18.3775 51.0813 17.31 48.0848C16.2799 45.1985 15.7889 42.059 15.9529 38.7941H15.9482C16.0877 36.0121 16.6947 33.3624 17.6896 30.9167C18.5451 28.8167 19.6901 26.8655 21.0717 25.1124ZM57.4927 56.5494L25.2835 20.9393C27.3565 19.3361 29.6921 18.067 32.2081 17.2068C35.0113 16.2471 38.0488 15.7947 41.2059 15.9529C44.4707 16.117 47.5458 16.9197 50.3149 18.2322C53.1884 19.5951 55.7455 21.5147 57.856 23.8479C59.9666 26.1823 61.6213 28.9187 62.69 31.914C63.719 34.8003 64.21 37.941 64.0471 41.2059C63.8889 44.3629 63.1342 47.3395 61.9002 50.0325C60.7928 52.4489 59.2951 54.6462 57.4927 56.5494Z" fill="#D92D27"/>
</svg>
