<svg width="80" height="80" viewBox="0 0 80 80" fill="none" xmlns="http://www.w3.org/2000/svg">
<rect width="80" height="80" rx="40" fill="white"/>
<g clip-path="url(#clip0_248_2585)">
<path fill-rule="evenodd" clip-rule="evenodd" d="M54.6171 50.8934L56.4335 53.1942C57.8109 52.4222 59.4002 51.9782 61.0905 51.9782C63.7193 51.9782 66.0957 53.0428 67.8163 54.7633C69.5368 56.4839 70.6014 58.8654 70.6014 61.4891C70.6014 64.1178 69.5368 66.4943 67.8163 68.2148C66.0957 69.9354 63.7193 71 61.0905 71C58.4668 71 56.0853 69.9354 54.3648 68.2148C52.6442 66.4943 51.5796 64.1178 51.5796 61.4891C51.5796 58.8654 52.6442 56.4839 54.3648 54.7633L54.4051 54.723L52.6291 52.4727C50.8379 53.6029 48.7137 54.2537 46.4382 54.2537C43.2241 54.2537 40.3078 52.952 38.2038 50.8429C37.6589 50.298 37.1644 49.6976 36.7355 49.0518L26.5838 54.3244C27.4971 55.7876 28.0269 57.5132 28.0269 59.3599C28.0269 61.9886 26.9622 64.3651 25.2417 66.0856C23.5212 67.8062 21.1447 68.8708 18.516 68.8708C15.8872 68.8708 13.5107 67.8062 11.7902 66.0856C10.0646 64.36 9 61.9836 9 59.3599C9 56.7362 10.0646 54.3547 11.7852 52.6341C13.5057 50.9136 15.8822 49.849 18.5109 49.849C20.9732 49.849 23.2184 50.7874 24.9087 52.3213L35.5599 46.7863C35.0604 45.4896 34.7879 44.0819 34.7879 42.6086C34.7879 40.4137 35.3985 38.3551 36.453 36.6043L25.8825 28.4608C25.8421 28.4305 25.8068 28.4002 25.7715 28.3649C25.7009 28.4406 25.6302 28.5112 25.5596 28.5869C23.839 30.3075 21.4626 31.3721 18.8338 31.3721C16.2051 31.3721 13.8286 30.3075 12.1081 28.5869C10.3875 26.8664 9.32292 24.4899 9.32292 21.8612C9.32292 19.2324 10.3875 16.856 12.1081 15.1354C13.8286 13.4149 16.2051 12.3503 18.8338 12.3503C21.4626 12.3503 23.839 13.4149 25.5596 15.1354C27.2801 16.856 28.3447 19.2324 28.3447 21.8612C28.3447 23.4707 27.9461 24.9894 27.2347 26.3215C27.3053 26.3568 27.3709 26.3971 27.4365 26.4476L37.9969 34.576C38.0625 34.5054 38.1281 34.4398 38.1987 34.3691C40.3078 32.2601 43.2191 30.9583 46.4331 30.9583C48.083 30.9583 49.6472 31.3014 51.07 31.917L54.1428 26.1297C53.7795 25.8573 53.4313 25.5596 53.1084 25.2367C51.3879 23.5161 50.3233 21.1396 50.3233 18.5109C50.3233 15.8822 51.3879 13.5057 53.1084 11.7852C54.834 10.0646 57.2105 9 59.8342 9C62.4629 9 64.8394 10.0646 66.5599 11.7852C68.2805 13.5057 69.3451 15.8822 69.3451 18.5109C69.3451 21.1346 68.2805 23.5161 66.5599 25.2367C64.8394 26.9572 62.4629 28.0218 59.8342 28.0218C58.6131 28.0218 57.4426 27.7897 56.3729 27.3709L53.285 33.1834C53.7744 33.5417 54.2386 33.9352 54.6675 34.3691C56.7766 36.4782 58.0783 39.3895 58.0783 42.6035C58.0783 45.8175 56.7766 48.7339 54.6675 50.8379L54.6171 50.8934ZM60.919 66.3429C60.5658 66.348 60.2782 66.0705 60.2731 65.7173C60.2681 65.3641 60.5456 65.0765 60.8937 65.0715C61.8272 65.0513 62.7001 64.7031 63.4216 64.1935C64.2591 63.6032 64.8949 62.8009 65.1976 62.029C65.3288 61.701 65.6971 61.5446 66.0251 61.6707C66.3531 61.8019 66.5095 62.1702 66.3833 62.4932C65.9898 63.4821 65.1976 64.5013 64.1582 65.2329C63.2399 65.8787 62.1299 66.3127 60.919 66.3429ZM66.1462 56.4334C64.8545 55.1418 63.0633 54.3395 61.0905 54.3395C59.1177 54.3395 57.3265 55.1418 56.0349 56.4334C54.7432 57.7251 53.9409 59.5163 53.9409 61.4891C53.9409 63.4619 54.7432 65.2531 56.0349 66.5448C57.3265 67.8364 59.1177 68.6387 61.0905 68.6387C63.0633 68.6387 64.8545 67.8364 66.1462 66.5448C67.4379 65.2531 68.2401 63.4619 68.2401 61.4891C68.2401 59.5112 67.4379 57.7251 66.1462 56.4334ZM18.1527 16.5936C18.4958 16.5078 18.8389 16.7147 18.9246 17.0578C19.0104 17.4009 18.8036 17.744 18.4605 17.8298C17.7036 18.0215 16.9972 18.4201 16.417 18.9196C15.7813 19.4645 15.2918 20.1204 15.0345 20.7562C14.9033 21.0841 14.53 21.2406 14.207 21.1094C13.8791 20.9782 13.7227 20.6048 13.8538 20.2819C14.1869 19.4696 14.7974 18.637 15.5895 17.9609C16.3161 17.3302 17.1991 16.8358 18.1527 16.5936ZM23.8895 16.8055C22.5978 15.5138 20.8066 14.7116 18.8338 14.7116C16.861 14.7116 15.0698 15.5138 13.7782 16.8055C12.4865 18.0972 11.6842 19.8883 11.6842 21.8612C11.6842 23.834 12.4865 25.6252 13.7782 26.9168C15.0698 28.2085 16.861 29.0107 18.8338 29.0107C20.8066 29.0107 22.5978 28.2085 23.8895 26.9168C25.1812 25.6252 25.9834 23.834 25.9834 21.8612C25.9834 19.8883 25.1812 18.1022 23.8895 16.8055ZM59.7131 14.5905C59.3599 14.5854 59.0824 14.2928 59.0874 13.9447C59.0925 13.5915 59.3851 13.314 59.7333 13.3241C60.7222 13.3442 61.6405 13.6369 62.4427 14.096C63.3358 14.6056 64.0876 15.3221 64.6123 16.089C64.8142 16.3766 64.7385 16.7752 64.4509 16.972C64.1633 17.1738 63.7647 17.0981 63.5679 16.8105C63.1441 16.195 62.5386 15.6147 61.8171 15.2061C61.1864 14.8377 60.4699 14.6056 59.7131 14.5905ZM64.8949 13.4552C63.6032 12.1636 61.812 11.3613 59.8392 11.3613C57.8664 11.3613 56.0752 12.1636 54.7836 13.4552C53.4919 14.7469 52.6896 16.5381 52.6896 18.5109C52.6896 20.4837 53.4919 22.2749 54.7836 23.5666C56.0752 24.8582 57.8664 25.6605 59.8392 25.6605C61.812 25.6605 63.6032 24.8582 64.8949 23.5666C66.1866 22.2749 66.9888 20.4837 66.9888 18.5109C66.9888 16.5381 66.1866 14.752 64.8949 13.4552ZM18.9499 63.2651C19.3031 63.2702 19.5806 63.5628 19.5705 63.911C19.5654 64.2642 19.2728 64.5417 18.9246 64.5366C17.9609 64.5164 17.0628 64.2389 16.2808 63.8C15.4028 63.3156 14.6662 62.6344 14.1314 61.8978C13.9245 61.6152 13.9901 61.2166 14.2726 61.0098C14.5552 60.8029 14.9538 60.8685 15.1606 61.151C15.5946 61.7464 16.1899 62.3014 16.8963 62.6899C17.5119 63.033 18.2082 63.25 18.9499 63.2651ZM23.5666 54.3042C22.2749 53.0125 20.4837 52.2103 18.5109 52.2103C16.5381 52.2103 14.7469 53.0125 13.4552 54.3042C12.1636 55.5959 11.3613 57.387 11.3613 59.3599C11.3613 61.3327 12.1636 63.1239 13.4552 64.4155C14.7469 65.7072 16.5381 66.5094 18.5109 66.5094C20.4837 66.5094 22.2749 65.7072 23.5666 64.4155C24.8582 63.1239 25.6605 61.3327 25.6605 59.3599C25.6605 57.382 24.8633 55.5959 23.5666 54.3042ZM47.1496 37.452C46.7712 37.4469 46.4735 37.1341 46.4785 36.7557C46.4836 36.3773 46.7964 36.0796 47.1748 36.0846C48.4816 36.1149 49.6724 36.5841 50.6563 37.2703C51.7764 38.0575 52.6291 39.1523 53.0479 40.217C53.1892 40.5651 53.0176 40.9637 52.6644 41.105C52.3163 41.2463 51.9177 41.0747 51.7764 40.7215C51.4484 39.894 50.7673 39.0262 49.8641 38.3905C49.0921 37.8455 48.1537 37.4722 47.1496 37.452Z" fill="#1E1C1F"/>
</g>
<defs>
<clipPath id="clip0_248_2585">
<rect width="61.6014" height="62" fill="white" transform="translate(9 9)"/>
</clipPath>
</defs>
</svg>
